<?xml version="1.0" standalone="no"?>
<!DOCTYPE svg PUBLIC "-//W3C//DTD SVG 20010904//EN"
 "http://www.w3.org/TR/2001/REC-SVG-20010904/DTD/svg10.dtd">
<svg version="1.0" xmlns="http://www.w3.org/2000/svg"
 width="1024.000000pt" height="1024.000000pt" viewBox="0 0 1024.000000 1024.000000"
 preserveAspectRatio="xMidYMid meet">

<g transform="translate(0.000000,1024.000000) scale(0.100000,-0.100000)"
fill="#000000" stroke="none">
<path d="M5970 7676 c0 -2 8 -10 18 -17 15 -13 16 -12 3 4 -13 16 -21 21 -21
13z"/>
<path d="M6056 7600 c67 -75 111 -146 142 -232 25 -70 26 -84 30 -317 3 -175
1 -241 -7 -237 -6 4 -8 18 -5 31 10 38 -6 52 -28 24 l-18 -24 10 29 c8 23 8
27 -3 23 -8 -3 -20 -1 -28 5 -11 8 -10 9 5 4 15 -5 17 -2 13 16 -4 12 -1 28 5
35 6 8 7 13 1 13 -6 0 -18 -11 -29 -24 -17 -23 -42 -27 -28 -4 4 6 -7 1 -24
-12 -28 -21 -60 -20 -47 1 4 5 -3 9 -14 9 -11 0 -23 -5 -27 -12 -4 -6 -3 -8 4
-4 6 3 14 1 18 -5 4 -7 3 -9 -2 -6 -6 3 -15 -3 -22 -14 -10 -16 -9 -19 3 -19
8 0 15 5 15 12 0 6 3 9 6 5 8 -8 -17 -41 -34 -45 -8 -1 -11 2 -7 8 3 5 -1 10
-9 10 -19 0 -30 -17 -14 -23 17 -5 -8 -37 -29 -37 -13 0 -13 -3 -2 -17 12 -16
12 -17 -2 -5 -11 8 -24 9 -40 4 -22 -9 -22 -9 9 -20 18 -6 32 -14 32 -17 0 -3
-5 -3 -10 0 -23 14 -90 12 -103 -3 -10 -13 -9 -15 5 -9 23 8 47 -21 27 -34 -8
-5 -24 -7 -36 -4 -26 6 -42 -13 -22 -26 8 -5 28 -7 44 -4 l30 6 -28 -16 c-25
-15 -29 -15 -44 0 -13 13 -18 14 -25 3 -7 -9 -8 -6 -5 10 6 27 -1 28 -20 5 -8
-10 -11 -12 -7 -4 5 10 3 12 -6 6 -21 -13 -30 16 -14 46 9 19 14 61 14 127 0
87 -3 103 -23 133 -37 56 -106 65 -135 18 -17 -26 -25 -135 -17 -208 5 -42 14
-61 36 -84 26 -25 35 -29 69 -24 28 3 40 1 44 -9 3 -8 2 -14 -3 -14 -4 0 -8
-7 -8 -16 0 -15 2 -15 13 0 8 11 14 13 19 7 3 -6 1 -11 -4 -11 -6 0 -11 -5
-11 -11 0 -6 7 -9 15 -5 8 3 15 0 15 -7 0 -7 7 -4 14 6 9 12 16 14 21 7 3 -5
11 -7 17 -4 7 4 8 2 4 -4 -4 -6 -13 -9 -20 -6 -8 3 -17 1 -21 -5 -9 -15 -55
-3 -85 23 l-25 21 18 -22 c18 -21 18 -21 -5 -29 -13 -4 -27 -7 -32 -5 -5 1 -4
-5 3 -13 7 -8 10 -20 7 -25 -4 -5 -2 -12 4 -16 10 -6 14 6 11 35 -2 13 -1 13
10 0 9 -13 10 -13 6 1 -4 12 2 16 24 16 l28 0 -27 -21 c-15 -12 -29 -30 -30
-41 -2 -11 -8 -24 -14 -30 -8 -7 -9 -6 -4 3 4 7 1 12 -9 12 -10 0 -15 -7 -13
-17 2 -15 -4 -18 -34 -17 -21 1 -38 -2 -38 -7 0 -5 -8 -6 -17 -3 -14 5 -15 4
-4 -4 11 -8 10 -12 -5 -21 -11 -6 -14 -11 -7 -11 6 0 18 7 27 15 25 25 41 17
17 -9 -13 -14 -29 -22 -37 -19 -8 3 -17 -2 -20 -12 -4 -9 -13 -14 -20 -11 -9
3 -14 -2 -14 -13 0 -10 8 -22 18 -26 15 -6 15 -8 -5 -25 -29 -23 -35 -78 -10
-91 9 -6 17 -15 17 -21 0 -6 -12 2 -27 18 -15 16 -31 28 -35 27 -13 -4 -9 7 7
24 8 8 13 18 10 23 -3 4 2 10 10 14 8 3 15 10 15 16 0 6 -4 9 -9 6 -5 -3 -11
3 -14 14 -3 10 0 21 7 24 6 2 4 5 -6 5 -9 1 -19 7 -22 14 -2 6 -4 1 -3 -13 1
-14 6 -28 11 -31 13 -10 -3 -31 -17 -22 -8 4 -8 2 1 -9 10 -13 9 -21 -5 -47
-10 -17 -21 -31 -25 -31 -12 0 -5 24 12 38 11 10 12 14 2 18 -6 3 -9 11 -5 17
4 7 -1 5 -11 -3 -17 -13 -17 -14 0 -20 16 -6 16 -7 1 -13 -9 -3 -17 -13 -17
-21 0 -8 -5 -18 -12 -22 -8 -5 -9 -2 -5 9 4 10 2 17 -4 17 -6 0 -9 -9 -6 -19
3 -13 -1 -21 -12 -24 -9 -2 -2 -4 16 -4 20 0 30 4 27 11 -3 6 2 2 10 -8 9 -11
15 -29 15 -40 -2 -20 -2 -19 -6 1 -4 19 -9 21 -36 16 -39 -7 -41 -9 -32 -23 4
-6 16 -8 28 -4 12 3 19 3 15 -1 -5 -5 -23 -10 -40 -12 -56 -6 -57 -6 -52 -14
2 -5 11 -6 19 -2 20 7 19 -9 -2 -33 -21 -23 -27 -44 -13 -44 6 0 10 -7 10 -17
0 -12 -7 -8 -25 13 -21 24 -27 27 -35 14 -5 -8 -10 -18 -10 -21 0 -4 -15 -10
-32 -14 -18 -4 -27 -9 -20 -12 6 -2 10 -10 6 -16 -3 -7 1 -4 9 6 8 9 19 17 26
17 6 0 14 7 17 15 4 8 10 15 15 15 6 0 5 -9 -1 -20 -6 -11 -17 -20 -25 -20 -8
0 -15 -5 -15 -11 0 -5 5 -7 12 -3 8 5 9 2 5 -9 -3 -10 -2 -17 3 -17 5 0 10 10
12 22 2 13 11 24 22 26 13 3 16 0 11 -9 -6 -9 -3 -11 9 -6 12 5 15 3 9 -6 -8
-12 -9 -17 -12 -38 0 -5 -5 -8 -10 -5 -5 3 -7 15 -4 26 3 11 0 20 -6 20 -6 0
-11 -6 -11 -14 0 -23 -22 -31 -36 -12 -8 11 -14 13 -19 6 -3 -5 -11 -8 -16 -5
-5 4 -9 2 -9 -4 0 -5 5 -11 12 -13 7 -3 8 -9 2 -19 -5 -8 -9 -18 -9 -24 0 -5
-9 -9 -19 -7 -10 2 -27 -5 -38 -15 -20 -18 -20 -17 -17 7 3 18 10 25 27 26 13
1 29 7 35 14 10 10 7 10 -10 1 -18 -9 -23 -9 -23 0 0 8 -4 9 -13 0 -8 -6 -17
-8 -20 -4 -4 3 -7 -6 -7 -20 0 -17 -5 -27 -15 -27 -8 0 -15 -4 -15 -8 0 -4 14
-8 32 -7 27 0 32 -4 35 -27 2 -14 -1 -30 -7 -33 -8 -5 -7 -12 2 -22 11 -14 10
-15 -9 -9 -13 4 -27 1 -37 -9 -11 -11 -16 -13 -16 -4 0 8 -7 5 -16 -7 -12 -14
-14 -15 -11 -3 4 12 -1 17 -19 17 -23 0 -23 -1 -6 -17 11 -9 17 -23 14 -31 -3
-10 2 -8 14 5 27 29 54 29 52 0 -2 -16 -7 -21 -18 -18 -8 3 -4 -2 8 -12 22
-16 25 -16 40 -1 9 8 12 19 8 23 -4 4 -11 1 -16 -7 -8 -13 -10 -13 -10 1 0 22
22 30 42 15 14 -10 11 -16 -25 -46 -25 -21 -38 -28 -34 -17 8 22 -2 22 -18 0
-11 -15 -15 -15 -29 -4 -9 7 -13 18 -9 24 3 5 1 7 -4 4 -6 -4 -17 0 -24 9 -10
13 -10 17 0 24 8 4 9 10 3 14 -5 3 -18 -4 -28 -16 -11 -12 -13 -18 -6 -14 6 4
12 3 12 -3 0 -5 -3 -11 -7 -14 -5 -2 -2 -2 6 0 8 2 11 -2 8 -11 -4 -10 0 -12
14 -9 12 3 21 -1 25 -12 5 -12 14 -15 33 -10 14 4 22 3 16 -2 -5 -4 -27 -23
-47 -42 -44 -40 -60 -36 -29 7 12 17 21 34 21 39 0 4 -16 -14 -35 -41 -19 -27
-32 -52 -30 -57 3 -4 1 -10 -5 -14 -5 -3 -10 1 -10 9 0 9 -5 16 -11 16 -7 0 0
11 15 25 35 33 23 32 -16 0 -16 -14 -35 -22 -40 -19 -7 4 -8 2 -4 -4 4 -6 13
-9 21 -6 7 3 18 -4 24 -15 10 -18 8 -21 -13 -27 -40 -10 -70 0 -83 26 -9 17
-13 82 -13 210 0 102 -4 190 -8 196 -4 6 -29 16 -57 23 -27 7 -80 25 -117 41
-38 15 -68 26 -68 24 0 -9 72 -40 150 -64 l85 -27 3 -197 c3 -213 8 -238 58
-250 36 -9 75 15 205 128 64 55 179 149 256 207 l140 106 94 12 c52 7 128 24
169 37 87 28 195 84 195 101 0 6 4 15 9 20 5 5 6 2 1 -6 -5 -9 -4 -12 4 -10 7
3 12 9 12 14 -1 15 121 135 131 129 11 -7 62 77 98 162 60 145 64 178 65 524
0 306 -1 317 -24 389 -28 86 -100 199 -162 256 -42 39 -42 38 7 -15z m-381
-586 c33 -21 45 -70 45 -177 0 -80 -2 -90 -25 -112 -13 -14 -36 -25 -50 -25
-14 0 -37 11 -50 25 -24 23 -25 30 -25 146 0 100 3 126 17 141 20 22 56 23 88
2z m432 -107 c0 -7 -11 -14 -24 -15 -14 -1 -21 2 -18 8 4 6 10 8 15 5 5 -3 11
-1 15 5 8 13 12 13 12 -3z m-46 -47 c5 0 9 5 9 10 0 6 5 10 12 10 6 0 4 -8 -6
-19 -23 -25 -45 -8 -37 28 l6 26 3 -27 c2 -16 8 -28 13 -28z m84 20 c3 -6 -1
-7 -9 -4 -18 7 -21 14 -7 14 6 0 13 -4 16 -10z m-135 -56 c0 -8 -19 -13 -24
-6 -3 5 1 9 9 9 8 0 15 -2 15 -3z m207 -146 c-2 -18 -4 -4 -4 32 0 36 2 50 4
33 2 -18 2 -48 0 -65z m-13 -82 c-3 -21 -8 -35 -11 -32 -2 2 -1 20 3 40 3 21
8 35 11 32 2 -2 1 -20 -3 -40z m-469 -30 c-11 -8 -26 -12 -35 -9 -11 3 -10 1
2 -7 14 -8 24 -7 45 6 l28 17 -28 -26 c-26 -24 -30 -24 -47 -10 -22 19 -17 33
10 33 10 0 22 5 25 11 4 6 10 8 13 5 3 -4 -3 -12 -13 -20z m-46 -57 c-22 -14
-33 -10 -19 6 7 8 17 12 22 9 6 -4 5 -10 -3 -15z m6 -19 c-3 -5 -11 -10 -16
-10 -6 0 -7 5 -4 10 3 6 11 10 16 10 6 0 7 -4 4 -10z m-45 -4 c0 -2 -8 -10
-17 -17 -16 -13 -17 -12 -4 4 13 16 21 21 21 13z m-40 -29 c0 -2 -9 -12 -21
-23 -15 -14 -20 -15 -17 -4 2 8 8 18 13 22 10 8 25 10 25 5z m30 -17 c0 -5 -2
-10 -4 -10 -3 0 -8 5 -11 10 -3 6 -1 10 4 10 6 0 11 -4 11 -10z m-20 -14 c0
-3 -4 -8 -10 -11 -5 -3 -10 -1 -10 4 0 6 5 11 10 11 6 0 10 -2 10 -4z m-75
-15 c6 9 11 6 17 -10 5 -13 12 -19 19 -15 8 4 9 3 5 -5 -6 -9 -11 -9 -23 0
-12 10 -19 10 -35 0 -16 -10 -18 -10 -12 0 5 9 2 10 -10 6 -12 -5 -16 -3 -13
5 2 7 10 12 16 11 6 -2 11 3 11 10 0 9 3 8 9 -2 7 -10 10 -11 16 0z m565 -62
c-7 -11 -14 -18 -17 -15 -3 3 0 12 7 21 18 21 23 19 10 -6z m-588 -26 c25 -30
29 -41 16 -49 -7 -4 -10 -4 -6 1 13 13 -13 37 -27 25 -8 -7 -12 -5 -12 5 0 8
5 15 11 15 6 0 4 5 -4 10 -8 5 -10 10 -4 10 6 0 18 -8 26 -17z m32 1 c3 -8 2
-12 -4 -9 -6 3 -10 10 -10 16 0 14 7 11 14 -7z m-107 -96 c2 -17 0 -19 -7 -8
-5 8 -6 18 -4 22 8 12 10 10 11 -14z m-53 -84 c3 -8 2 -12 -4 -9 -6 3 -10 10
-10 16 0 14 7 11 14 -7z m506 -9 c0 -2 -10 -9 -22 -15 -22 -11 -22 -10 -4 4
21 17 26 19 26 11z m-590 -20 c0 -8 -4 -15 -10 -15 -5 0 -7 7 -4 15 4 8 8 15
10 15 2 0 4 -7 4 -15z m3 -67 c-3 -16 -9 -28 -14 -28 -5 0 -4 12 1 26 6 14 7
31 4 37 -5 8 -4 9 4 2 6 -5 8 -22 5 -37z m451 17 c-17 -8 -44 -16 -60 -20 -16
-3 -6 4 21 14 57 22 86 26 39 6z m-217 -51 c-3 -3 -12 -4 -19 -1 -8 3 -5 6 6
6 11 1 17 -2 13 -5z m-77 -8 c0 -2 -7 -7 -16 -10 -8 -3 -12 -2 -9 4 6 10 25
14 25 6z m-213 -30 c7 -7 -10 -9 -44 -6 -20 1 -21 -1 -10 -29 12 -32 -2 -61
-29 -61 -8 0 -11 -6 -7 -17 5 -13 3 -13 -13 3 -19 19 -19 19 11 24 21 4 31 11
33 27 2 12 -3 23 -11 25 -10 2 -12 9 -7 24 7 17 16 21 40 19 17 -1 34 -5 37
-9z m168 5 c-30 -29 -140 -109 -145 -105 -2 3 2 9 10 14 47 27 79 57 75 69 -3
8 0 11 9 8 8 -3 22 1 33 8 20 16 32 20 18 6z m-265 -56 c4 3 10 -1 13 -8 3 -8
-3 -13 -17 -13 -25 0 -40 17 -23 28 7 4 14 3 15 -2 2 -6 7 -8 12 -5z m97 -22
c0 -8 -6 -9 -19 -2 -10 5 -18 11 -18 12 0 2 8 3 18 3 10 0 19 -6 19 -13z m-55
-35 c-7 -9 -6 -17 3 -25 11 -10 19 -8 39 8 14 11 26 18 26 15 0 -3 -28 -26
-62 -52 -34 -27 -58 -42 -54 -35 6 8 2 11 -10 9 -23 -4 -25 22 -4 40 13 11 13
11 -1 6 -10 -3 -20 -1 -24 5 -3 7 0 8 10 5 11 -5 14 -2 9 12 -6 17 -5 17 9 -1
20 -24 22 -45 5 -45 -9 0 -9 -3 1 -9 17 -11 64 16 55 30 -3 5 -10 7 -15 4 -13
-9 -11 19 3 33 16 16 23 15 10 0z m-98 -64 c4 -10 1 -14 -6 -12 -15 5 -23 28
-10 28 5 0 13 -7 16 -16z"/>
<path d="M5263 7203 c9 -2 23 -2 30 0 6 3 -1 5 -18 5 -16 0 -22 -2 -12 -5z"/>
<path d="M5215 7180 c-10 -11 -16 -22 -14 -24 2 -2 12 7 22 20 22 29 17 32 -8
4z"/>
<path d="M5349 7153 c16 -33 14 -571 -2 -603 -18 -35 -53 -50 -88 -38 -40 14
-51 39 -59 133 l-7 80 -2 -70 c-1 -81 18 -131 61 -155 25 -13 31 -13 62 4 18
10 39 29 45 42 7 17 11 121 11 308 0 240 -2 285 -16 302 -15 18 -15 18 -5 -3z"/>
<path d="M4918 7093 c7 -3 16 -2 19 1 4 3 -2 6 -13 5 -11 0 -14 -3 -6 -6z"/>
<path d="M6110 6980 c0 -13 12 -19 26 -13 21 8 17 19 -6 19 -11 0 -20 -3 -20
-6z"/>
<path d="M6195 6960 c-3 -5 -2 -10 4 -10 5 0 13 5 16 10 3 6 2 10 -4 10 -5 0
-13 -4 -16 -10z"/>
<path d="M6066 6951 c-4 -5 3 -7 14 -4 23 6 26 13 6 13 -8 0 -17 -4 -20 -9z"/>
<path d="M5915 6897 c-16 -17 -24 -27 -17 -23 18 11 26 -18 12 -45 -11 -19
-10 -21 5 -16 9 4 21 7 26 7 5 0 9 5 9 11 0 6 -7 9 -15 6 -11 -5 -12 -1 -5 19
7 17 7 23 0 19 -20 -12 -10 14 11 28 11 8 17 17 12 19 -4 3 -21 -9 -38 -25z"/>
<path d="M5975 6910 c-3 -5 1 -10 10 -10 9 0 13 5 10 10 -3 6 -8 10 -10 10 -2
0 -7 -4 -10 -10z"/>
<path d="M5192 6855 c0 -16 2 -22 5 -12 2 9 2 23 0 30 -3 6 -5 -1 -5 -18z"/>
<path d="M5864 6852 c3 -5 0 -13 -6 -15 -9 -4 -10 -6 -1 -6 17 -1 25 16 12 25
-7 4 -9 3 -5 -4z"/>
<path d="M5842 6800 c-40 -27 -41 -29 -15 -26 16 2 28 9 28 17 0 8 8 13 18 13
9 -1 17 4 17 12 0 18 2 19 -48 -16z"/>
<path d="M5193 6770 c0 -25 2 -35 4 -22 2 12 2 32 0 45 -2 12 -4 2 -4 -23z"/>
<path d="M5782 6798 c-7 -7 -12 -16 -12 -21 0 -5 7 -1 16 8 9 9 14 18 12 20
-2 3 -10 -1 -16 -7z"/>
<path d="M5001 6784 c0 -11 3 -14 6 -6 3 7 2 16 -1 19 -3 4 -6 -2 -5 -13z"/>
<path d="M3393 6725 c-61 -26 -73 -62 -73 -217 l0 -138 -77 0 c-60 0 -86 -5
-110 -20 -67 -40 -63 17 -63 -1002 0 -908 0 -924 20 -956 34 -55 56 -59 370
-65 529 -11 911 -58 1240 -153 124 -36 153 -47 283 -117 58 -32 78 -37 132
-37 71 0 93 8 179 62 59 38 199 88 351 127 305 77 752 121 1230 121 181 0 203
2 232 20 67 40 63 -17 63 1000 0 1017 4 960 -63 1000 -24 15 -50 20 -109 20
l-78 0 0 135 c0 152 -9 182 -63 215 -18 11 -47 20 -65 20 -35 0 -255 -50 -335
-76 l-48 -16 3 -71 c4 -85 -5 -82 153 -49 55 11 119 23 143 27 l42 7 0 -845 0
-845 -107 -7 c-165 -10 -415 -43 -543 -71 -281 -63 -593 -192 -792 -327 l-98
-66 0 594 c0 401 -3 596 -10 600 -6 4 -46 -20 -88 -52 l-77 -59 -3 -542 -2
-542 -108 71 c-343 227 -755 347 -1349 395 l-83 7 0 844 0 845 53 -7 c206 -27
480 -107 663 -195 l122 -58 -24 53 c-14 30 -30 80 -36 112 -6 32 -12 63 -13
68 -4 16 -325 121 -455 149 -121 26 -311 56 -351 56 -13 -1 -39 -7 -56 -15z"/>
<path d="M5821 6731 c-10 -6 -10 -10 -1 -16 13 -8 24 -1 19 14 -3 6 -10 7 -18
2z"/>
<path d="M5775 6720 c-3 -6 1 -7 9 -4 18 7 21 14 7 14 -6 0 -13 -4 -16 -10z"/>
<path d="M4840 6682 c0 -7 11 -24 25 -37 31 -32 75 -33 101 -2 19 22 19 22 -2
5 -37 -32 -87 -20 -112 27 -6 11 -12 14 -12 7z"/>
<path d="M5577 6599 c-18 -11 -24 -39 -7 -39 6 0 10 6 10 14 0 8 6 16 13 19 6
2 10 7 7 10 -3 3 -13 1 -23 -4z"/>
<path d="M5605 6579 c-4 -6 -5 -12 -2 -15 2 -3 7 2 10 11 7 17 1 20 -8 4z"/>
<path d="M5558 6543 c7 -3 16 -2 19 1 4 3 -2 6 -13 5 -11 0 -14 -3 -6 -6z"/>
<path d="M5600 6538 c0 -4 4 -8 9 -8 6 0 12 4 15 8 3 5 -1 9 -9 9 -8 0 -15 -4
-15 -9z"/>
<path d="M5570 6510 c0 -5 9 -10 20 -10 11 0 20 5 20 10 0 6 -9 10 -20 10 -11
0 -20 -4 -20 -10z"/>
<path d="M5460 6500 c-8 -5 -10 -10 -5 -10 6 0 17 5 25 10 8 5 11 10 5 10 -5
0 -17 -5 -25 -10z"/>
<path d="M5491 6454 c0 -11 3 -14 6 -6 3 7 2 16 -1 19 -3 4 -6 -2 -5 -13z"/>
<path d="M5396 6405 c4 -8 8 -15 10 -15 2 0 4 7 4 15 0 8 -4 15 -10 15 -5 0
-7 -7 -4 -15z"/>
<path d="M5323 6325 c-3 -9 -3 -18 -1 -21 3 -3 8 4 11 16 6 23 -1 27 -10 5z"/>
<path d="M5345 6319 c-4 -6 -5 -12 -2 -15 2 -3 7 2 10 11 7 17 1 20 -8 4z"/>
<path d="M5287 6285 c3 -8 9 -12 14 -9 12 7 11 11 -5 17 -10 4 -13 1 -9 -8z"/>
<path d="M4350 6276 c0 -2 8 -10 18 -17 15 -13 16 -12 3 4 -13 16 -21 21 -21
13z"/>
<path d="M6005 6220 c-33 -33 -55 -60 -49 -60 13 0 119 108 113 114 -3 3 -32
-21 -64 -54z"/>
<path d="M4446 6173 c35 -34 73 -67 86 -73 16 -8 14 -4 -7 12 -16 12 -55 45
-86 73 -51 46 -51 45 7 -12z"/>
<path d="M5286 6232 c-3 -6 0 -13 6 -16 7 -4 2 -4 -10 -2 -13 3 -21 2 -18 -1
3 -4 0 -13 -7 -22 -10 -14 -10 -14 4 -4 9 7 18 11 21 8 10 -10 27 21 19 34 -6
8 -11 9 -15 3z"/>
<path d="M5105 6060 c-2 -3 5 -7 16 -7 10 -1 19 2 19 6 0 9 -29 10 -35 1z"/>
<path d="M4999 5983 c-13 -16 -12 -17 4 -4 16 13 21 21 13 21 -2 0 -10 -8 -17
-17z"/>
<path d="M5084 5874 c5 -14 4 -15 -9 -4 -9 7 -18 10 -22 6 -3 -3 -1 -6 5 -6 7
0 12 -7 12 -16 0 -14 3 -14 15 -4 17 15 20 40 4 40 -6 0 -8 -7 -5 -16z"/>
<path d="M4984 5848 c-4 -6 -3 -8 4 -4 6 3 13 2 17 -4 9 -14 18 -13 41 6 18
14 18 14 -6 3 -18 -9 -25 -9 -28 0 -5 14 -19 14 -28 -1z"/>
<path d="M4905 5820 c-3 -5 1 -10 10 -10 9 0 13 5 10 10 -3 6 -8 10 -10 10 -2
0 -7 -4 -10 -10z"/>
<path d="M4910 5756 c-7 -14 -17 -23 -22 -20 -16 10 -8 -22 10 -42 10 -11 17
-26 15 -34 -3 -11 0 -10 10 3 8 9 24 17 35 17 11 0 23 4 27 10 3 5 -12 8 -37
7 -43 -2 -45 0 -39 42 0 5 8 11 16 13 9 2 11 8 7 16 -6 9 -12 6 -22 -12z"/>
<path d="M4825 5640 c3 -5 8 -10 11 -10 2 0 4 5 4 10 0 6 -5 10 -11 10 -5 0
-7 -4 -4 -10z"/>
<path d="M5814 3689 c-68 -19 -103 -103 -70 -167 53 -103 216 -66 216 49 0 87
-66 141 -146 118z"/>
<path d="M2077 3613 c-4 -3 -7 -46 -7 -95 0 -77 2 -88 18 -89 9 -1 76 -3 147
-4 l130 -2 2 -419 c1 -230 2 -423 2 -427 1 -4 47 -6 104 -5 l102 3 5 424 5
424 126 -1 c181 -1 170 -8 167 102 l-3 91 -396 3 c-217 1 -398 -1 -402 -5z"/>
<path d="M3835 3543 c-89 -8 -85 -2 -85 -108 l0 -94 -52 -3 -53 -3 0 -75 0
-75 52 -3 51 -3 4 -212 c4 -175 8 -221 23 -266 35 -100 116 -151 239 -151 71
0 176 27 183 48 6 15 -12 100 -30 139 -9 20 -15 22 -73 16 -75 -7 -118 7 -133
46 -7 17 -10 89 -9 200 l3 174 96 -2 c117 -3 121 1 117 96 l-3 68 -105 5 -105
5 -5 100 -5 100 -35 1 c-19 1 -53 -1 -75 -3z"/>
<path d="M4539 3346 c-122 -35 -239 -137 -279 -243 -92 -247 54 -495 322 -544
183 -34 387 67 464 228 37 77 45 204 19 288 -36 113 -131 213 -245 256 -69 27
-214 34 -281 15z m184 -177 c157 -43 203 -274 76 -383 -149 -127 -359 -28
-359 169 0 158 130 257 283 214z"/>
<path d="M5543 3350 c-53 -11 -75 -23 -125 -68 l-41 -37 5 30 c11 56 -2 65
-102 65 l-90 0 2 -382 3 -383 90 0 90 0 5 210 c5 199 7 213 31 266 34 72 78
101 168 108 l66 6 3 81 c4 112 -7 123 -105 104z"/>
<path d="M7237 3345 c-21 -8 -56 -28 -77 -45 l-39 -31 -3 33 -3 33 -95 0 -95
0 0 -380 0 -380 89 -3 c52 -2 93 1 99 7 7 7 11 101 12 253 1 274 5 291 71 323
47 22 126 23 159 1 57 -38 60 -49 65 -326 l5 -255 89 -3 c65 -2 92 1 98 10 4
7 8 128 8 269 l0 256 25 23 c33 31 112 51 161 40 20 -5 49 -20 63 -35 l26 -25
3 -248 c1 -136 4 -257 7 -270 5 -22 9 -23 98 -20 l92 3 3 270 c3 304 -3 354
-51 418 -90 119 -287 131 -424 27 l-50 -37 -30 32 c-48 50 -97 69 -188 72 -52
2 -94 -3 -118 -12z"/>
<path d="M6599 3336 c-5 -6 -9 -108 -9 -239 0 -260 -4 -280 -72 -324 -46 -31
-124 -41 -168 -23 -60 25 -64 48 -70 330 l-5 255 -95 0 -95 0 -3 -260 c-4
-312 4 -356 74 -434 96 -107 269 -121 384 -30 l49 39 3 -38 3 -37 89 -3 c49
-2 93 1 99 7 6 6 13 639 8 748 -1 14 -178 23 -192 9z"/>
<path d="M2854 3326 c-3 -8 -4 -137 -2 -288 3 -260 4 -275 26 -323 28 -60 73
-109 127 -138 31 -17 58 -21 125 -21 92 -1 136 15 192 68 15 14 29 26 32 26 3
0 6 -17 8 -37 l3 -38 95 0 95 0 0 380 0 380 -95 0 -95 0 -5 -247 c-5 -229 -6
-249 -26 -275 -43 -60 -154 -91 -219 -61 -55 25 -60 49 -63 331 l-3 257 -95 0
c-72 0 -96 -3 -100 -14z"/>
<path d="M5752 2958 l3 -383 95 0 95 0 3 383 2 382 -100 0 -100 0 2 -382z"/>
</g>
</svg>
